<mxfile host="Electron" agent="Mozilla/5.0 (Macintosh; Intel Mac OS X 10_15_7) AppleWebKit/537.36 (KHTML, like Gecko) draw.io/25.0.2 Chrome/128.0.6613.186 Electron/32.2.5 Safari/537.36" version="25.0.2">
  <diagram name="第 1 页" id="0mdn7ULzNLAXXM_rNK-b">
    <mxGraphModel dx="1332" dy="1032" grid="0" gridSize="10" guides="1" tooltips="1" connect="1" arrows="1" fold="1" page="0" pageScale="1" pageWidth="1169" pageHeight="827" math="0" shadow="0">
      <root>
        <mxCell id="0" />
        <mxCell id="1" parent="0" />
        <mxCell id="icUlsxyC_yq-rdmIvHmY-1" value="" style="rounded=0;whiteSpace=wrap;html=1;" parent="1" vertex="1">
          <mxGeometry x="120" y="120" width="120" height="40" as="geometry" />
        </mxCell>
        <mxCell id="icUlsxyC_yq-rdmIvHmY-2" value="" style="rounded=0;whiteSpace=wrap;html=1;" parent="1" vertex="1">
          <mxGeometry x="240" y="120" width="120" height="40" as="geometry" />
        </mxCell>
        <mxCell id="icUlsxyC_yq-rdmIvHmY-3" value="" style="rounded=0;whiteSpace=wrap;html=1;" parent="1" vertex="1">
          <mxGeometry x="360" y="120" width="120" height="40" as="geometry" />
        </mxCell>
        <mxCell id="icUlsxyC_yq-rdmIvHmY-4" value="" style="rounded=0;whiteSpace=wrap;html=1;" parent="1" vertex="1">
          <mxGeometry x="480" y="120" width="120" height="40" as="geometry" />
        </mxCell>
        <mxCell id="icUlsxyC_yq-rdmIvHmY-5" value="" style="rounded=0;whiteSpace=wrap;html=1;" parent="1" vertex="1">
          <mxGeometry x="600" y="120" width="120" height="40" as="geometry" />
        </mxCell>
        <mxCell id="icUlsxyC_yq-rdmIvHmY-6" value="" style="rounded=0;whiteSpace=wrap;html=1;" parent="1" vertex="1">
          <mxGeometry x="720" y="120" width="120" height="40" as="geometry" />
        </mxCell>
        <mxCell id="icUlsxyC_yq-rdmIvHmY-7" value="" style="rounded=0;whiteSpace=wrap;html=1;" parent="1" vertex="1">
          <mxGeometry x="840" y="120" width="120" height="40" as="geometry" />
        </mxCell>
        <mxCell id="icUlsxyC_yq-rdmIvHmY-8" value="" style="rounded=0;whiteSpace=wrap;html=1;" parent="1" vertex="1">
          <mxGeometry x="960" y="120" width="120" height="40" as="geometry" />
        </mxCell>
        <mxCell id="icUlsxyC_yq-rdmIvHmY-23" style="edgeStyle=orthogonalEdgeStyle;rounded=0;orthogonalLoop=1;jettySize=auto;html=1;exitX=0.5;exitY=0;exitDx=0;exitDy=0;entryX=0;entryY=0;entryDx=0;entryDy=0;" parent="1" source="icUlsxyC_yq-rdmIvHmY-9" target="icUlsxyC_yq-rdmIvHmY-13" edge="1">
          <mxGeometry relative="1" as="geometry">
            <Array as="points">
              <mxPoint x="125" y="80" />
              <mxPoint x="240" y="80" />
            </Array>
          </mxGeometry>
        </mxCell>
        <mxCell id="icUlsxyC_yq-rdmIvHmY-9" value="" style="rounded=0;whiteSpace=wrap;html=1;" parent="1" vertex="1">
          <mxGeometry x="120" y="120" width="10" height="40" as="geometry" />
        </mxCell>
        <mxCell id="icUlsxyC_yq-rdmIvHmY-24" style="edgeStyle=orthogonalEdgeStyle;rounded=0;orthogonalLoop=1;jettySize=auto;html=1;exitX=0.5;exitY=0;exitDx=0;exitDy=0;entryX=1;entryY=0;entryDx=0;entryDy=0;" parent="1" source="icUlsxyC_yq-rdmIvHmY-10" target="icUlsxyC_yq-rdmIvHmY-2" edge="1">
          <mxGeometry relative="1" as="geometry">
            <Array as="points">
              <mxPoint x="135" y="90" />
              <mxPoint x="360" y="90" />
            </Array>
          </mxGeometry>
        </mxCell>
        <mxCell id="icUlsxyC_yq-rdmIvHmY-10" value="" style="rounded=0;whiteSpace=wrap;html=1;" parent="1" vertex="1">
          <mxGeometry x="130" y="120" width="10" height="40" as="geometry" />
        </mxCell>
        <mxCell id="icUlsxyC_yq-rdmIvHmY-25" style="edgeStyle=orthogonalEdgeStyle;rounded=0;orthogonalLoop=1;jettySize=auto;html=1;exitX=0.5;exitY=0;exitDx=0;exitDy=0;entryX=0;entryY=0;entryDx=0;entryDy=0;" parent="1" source="icUlsxyC_yq-rdmIvHmY-11" target="icUlsxyC_yq-rdmIvHmY-4" edge="1">
          <mxGeometry relative="1" as="geometry" />
        </mxCell>
        <mxCell id="icUlsxyC_yq-rdmIvHmY-11" value="" style="rounded=0;whiteSpace=wrap;html=1;" parent="1" vertex="1">
          <mxGeometry x="140" y="120" width="10" height="40" as="geometry" />
        </mxCell>
        <mxCell id="icUlsxyC_yq-rdmIvHmY-26" style="edgeStyle=orthogonalEdgeStyle;rounded=0;orthogonalLoop=1;jettySize=auto;html=1;exitX=0.5;exitY=0;exitDx=0;exitDy=0;entryX=1;entryY=0;entryDx=0;entryDy=0;" parent="1" source="icUlsxyC_yq-rdmIvHmY-12" target="icUlsxyC_yq-rdmIvHmY-4" edge="1">
          <mxGeometry relative="1" as="geometry">
            <Array as="points">
              <mxPoint x="155" y="110" />
              <mxPoint x="600" y="110" />
            </Array>
          </mxGeometry>
        </mxCell>
        <mxCell id="icUlsxyC_yq-rdmIvHmY-12" value="" style="rounded=0;whiteSpace=wrap;html=1;" parent="1" vertex="1">
          <mxGeometry x="150" y="120" width="10" height="40" as="geometry" />
        </mxCell>
        <mxCell id="icUlsxyC_yq-rdmIvHmY-27" style="edgeStyle=orthogonalEdgeStyle;rounded=0;orthogonalLoop=1;jettySize=auto;html=1;exitX=0.5;exitY=1;exitDx=0;exitDy=0;entryX=0;entryY=1;entryDx=0;entryDy=0;" parent="1" source="icUlsxyC_yq-rdmIvHmY-13" target="icUlsxyC_yq-rdmIvHmY-9" edge="1">
          <mxGeometry relative="1" as="geometry">
            <Array as="points">
              <mxPoint x="245" y="170" />
              <mxPoint x="120" y="170" />
            </Array>
          </mxGeometry>
        </mxCell>
        <mxCell id="icUlsxyC_yq-rdmIvHmY-13" value="" style="rounded=0;whiteSpace=wrap;html=1;" parent="1" vertex="1">
          <mxGeometry x="240" y="120" width="10" height="40" as="geometry" />
        </mxCell>
        <mxCell id="icUlsxyC_yq-rdmIvHmY-28" style="edgeStyle=orthogonalEdgeStyle;rounded=0;orthogonalLoop=1;jettySize=auto;html=1;exitX=0.5;exitY=1;exitDx=0;exitDy=0;entryX=0;entryY=1;entryDx=0;entryDy=0;" parent="1" source="icUlsxyC_yq-rdmIvHmY-14" target="icUlsxyC_yq-rdmIvHmY-13" edge="1">
          <mxGeometry relative="1" as="geometry">
            <Array as="points">
              <mxPoint x="255" y="180" />
              <mxPoint x="240" y="180" />
            </Array>
          </mxGeometry>
        </mxCell>
        <mxCell id="icUlsxyC_yq-rdmIvHmY-14" value="" style="rounded=0;whiteSpace=wrap;html=1;" parent="1" vertex="1">
          <mxGeometry x="250" y="120" width="10" height="40" as="geometry" />
        </mxCell>
        <mxCell id="icUlsxyC_yq-rdmIvHmY-29" style="edgeStyle=orthogonalEdgeStyle;rounded=0;orthogonalLoop=1;jettySize=auto;html=1;exitX=0.5;exitY=1;exitDx=0;exitDy=0;entryX=0;entryY=1;entryDx=0;entryDy=0;" parent="1" source="icUlsxyC_yq-rdmIvHmY-15" target="icUlsxyC_yq-rdmIvHmY-3" edge="1">
          <mxGeometry relative="1" as="geometry">
            <Array as="points">
              <mxPoint x="265" y="220" />
              <mxPoint x="360" y="220" />
            </Array>
          </mxGeometry>
        </mxCell>
        <mxCell id="icUlsxyC_yq-rdmIvHmY-15" value="" style="rounded=0;whiteSpace=wrap;html=1;" parent="1" vertex="1">
          <mxGeometry x="260" y="120" width="10" height="40" as="geometry" />
        </mxCell>
        <mxCell id="icUlsxyC_yq-rdmIvHmY-30" style="edgeStyle=orthogonalEdgeStyle;rounded=0;orthogonalLoop=1;jettySize=auto;html=1;exitX=0.5;exitY=1;exitDx=0;exitDy=0;entryX=0;entryY=1;entryDx=0;entryDy=0;" parent="1" source="icUlsxyC_yq-rdmIvHmY-16" target="icUlsxyC_yq-rdmIvHmY-4" edge="1">
          <mxGeometry relative="1" as="geometry">
            <Array as="points">
              <mxPoint x="275" y="210" />
              <mxPoint x="480" y="210" />
            </Array>
          </mxGeometry>
        </mxCell>
        <mxCell id="icUlsxyC_yq-rdmIvHmY-16" value="" style="rounded=0;whiteSpace=wrap;html=1;" parent="1" vertex="1">
          <mxGeometry x="270" y="120" width="10" height="40" as="geometry" />
        </mxCell>
        <mxCell id="icUlsxyC_yq-rdmIvHmY-31" style="edgeStyle=orthogonalEdgeStyle;rounded=0;orthogonalLoop=1;jettySize=auto;html=1;exitX=0.5;exitY=1;exitDx=0;exitDy=0;entryX=0;entryY=1;entryDx=0;entryDy=0;" parent="1" source="icUlsxyC_yq-rdmIvHmY-17" target="icUlsxyC_yq-rdmIvHmY-5" edge="1">
          <mxGeometry relative="1" as="geometry">
            <Array as="points">
              <mxPoint x="285" y="200" />
              <mxPoint x="600" y="200" />
            </Array>
          </mxGeometry>
        </mxCell>
        <mxCell id="icUlsxyC_yq-rdmIvHmY-17" value="" style="rounded=0;whiteSpace=wrap;html=1;" parent="1" vertex="1">
          <mxGeometry x="280" y="120" width="10" height="40" as="geometry" />
        </mxCell>
        <mxCell id="icUlsxyC_yq-rdmIvHmY-32" style="edgeStyle=orthogonalEdgeStyle;rounded=0;orthogonalLoop=1;jettySize=auto;html=1;exitX=0.5;exitY=1;exitDx=0;exitDy=0;entryX=0;entryY=1;entryDx=0;entryDy=0;" parent="1" source="icUlsxyC_yq-rdmIvHmY-18" target="icUlsxyC_yq-rdmIvHmY-6" edge="1">
          <mxGeometry relative="1" as="geometry">
            <Array as="points">
              <mxPoint x="295" y="190" />
              <mxPoint x="720" y="190" />
            </Array>
          </mxGeometry>
        </mxCell>
        <mxCell id="icUlsxyC_yq-rdmIvHmY-18" value="" style="rounded=0;whiteSpace=wrap;html=1;" parent="1" vertex="1">
          <mxGeometry x="290" y="120" width="10" height="40" as="geometry" />
        </mxCell>
        <mxCell id="icUlsxyC_yq-rdmIvHmY-33" style="edgeStyle=orthogonalEdgeStyle;rounded=0;orthogonalLoop=1;jettySize=auto;html=1;exitX=0.5;exitY=1;exitDx=0;exitDy=0;entryX=1;entryY=1;entryDx=0;entryDy=0;" parent="1" source="icUlsxyC_yq-rdmIvHmY-19" target="icUlsxyC_yq-rdmIvHmY-6" edge="1">
          <mxGeometry relative="1" as="geometry" />
        </mxCell>
        <mxCell id="icUlsxyC_yq-rdmIvHmY-19" value="" style="rounded=0;whiteSpace=wrap;html=1;" parent="1" vertex="1">
          <mxGeometry x="300" y="120" width="10" height="40" as="geometry" />
        </mxCell>
        <mxCell id="icUlsxyC_yq-rdmIvHmY-21" value="" style="endArrow=none;dashed=1;html=1;dashPattern=1 3;strokeWidth=2;rounded=0;" parent="1" edge="1">
          <mxGeometry width="50" height="50" relative="1" as="geometry">
            <mxPoint x="190" y="139.76" as="sourcePoint" />
            <mxPoint x="230" y="139.76" as="targetPoint" />
          </mxGeometry>
        </mxCell>
        <mxCell id="icUlsxyC_yq-rdmIvHmY-22" value="" style="endArrow=none;dashed=1;html=1;dashPattern=1 3;strokeWidth=2;rounded=0;" parent="1" edge="1">
          <mxGeometry width="50" height="50" relative="1" as="geometry">
            <mxPoint x="320" y="139.76" as="sourcePoint" />
            <mxPoint x="350" y="140" as="targetPoint" />
          </mxGeometry>
        </mxCell>
        <mxCell id="icUlsxyC_yq-rdmIvHmY-34" value="" style="endArrow=none;dashed=1;html=1;dashPattern=1 3;strokeWidth=2;rounded=0;" parent="1" edge="1">
          <mxGeometry width="50" height="50" relative="1" as="geometry">
            <mxPoint x="995" y="139.54999999999998" as="sourcePoint" />
            <mxPoint x="1045" y="139.54999999999998" as="targetPoint" />
          </mxGeometry>
        </mxCell>
        <mxCell id="icUlsxyC_yq-rdmIvHmY-35" value="0x0000&lt;div&gt;_pg_dir&lt;/div&gt;" style="text;html=1;align=center;verticalAlign=middle;resizable=0;points=[];autosize=1;strokeColor=none;fillColor=none;" parent="1" vertex="1">
          <mxGeometry x="90" y="230" width="60" height="40" as="geometry" />
        </mxCell>
        <mxCell id="icUlsxyC_yq-rdmIvHmY-36" value="0x1000&lt;div&gt;pg0&lt;/div&gt;" style="text;html=1;align=center;verticalAlign=middle;resizable=0;points=[];autosize=1;strokeColor=none;fillColor=none;" parent="1" vertex="1">
          <mxGeometry x="210" y="230" width="60" height="40" as="geometry" />
        </mxCell>
        <mxCell id="icUlsxyC_yq-rdmIvHmY-37" value="0x2000&lt;div&gt;pg1&lt;/div&gt;" style="text;html=1;align=center;verticalAlign=middle;resizable=0;points=[];autosize=1;strokeColor=none;fillColor=none;" parent="1" vertex="1">
          <mxGeometry x="330" y="230" width="60" height="40" as="geometry" />
        </mxCell>
        <mxCell id="icUlsxyC_yq-rdmIvHmY-38" value="0x3000&lt;div&gt;pg2&lt;/div&gt;" style="text;html=1;align=center;verticalAlign=middle;resizable=0;points=[];autosize=1;strokeColor=none;fillColor=none;" parent="1" vertex="1">
          <mxGeometry x="450" y="230" width="60" height="40" as="geometry" />
        </mxCell>
        <mxCell id="icUlsxyC_yq-rdmIvHmY-39" value="0x4000&lt;div&gt;pg3&lt;/div&gt;" style="text;html=1;align=center;verticalAlign=middle;resizable=0;points=[];autosize=1;strokeColor=none;fillColor=none;" parent="1" vertex="1">
          <mxGeometry x="570" y="230" width="60" height="40" as="geometry" />
        </mxCell>
        <mxCell id="icUlsxyC_yq-rdmIvHmY-40" value="0x5000&lt;div&gt;pg4&lt;/div&gt;" style="text;html=1;align=center;verticalAlign=middle;resizable=0;points=[];autosize=1;strokeColor=none;fillColor=none;" parent="1" vertex="1">
          <mxGeometry x="690" y="230" width="60" height="40" as="geometry" />
        </mxCell>
        <mxCell id="icUlsxyC_yq-rdmIvHmY-41" value="0x6000&lt;div&gt;pg5&lt;/div&gt;" style="text;html=1;align=center;verticalAlign=middle;resizable=0;points=[];autosize=1;strokeColor=none;fillColor=none;" parent="1" vertex="1">
          <mxGeometry x="810" y="230" width="60" height="40" as="geometry" />
        </mxCell>
        <mxCell id="AcQ2coQQ4TQe-I6zChpi-1" value="" style="endArrow=none;html=1;rounded=0;" edge="1" parent="1">
          <mxGeometry width="50" height="50" relative="1" as="geometry">
            <mxPoint x="160" y="400" as="sourcePoint" />
            <mxPoint x="280" y="400" as="targetPoint" />
          </mxGeometry>
        </mxCell>
        <mxCell id="AcQ2coQQ4TQe-I6zChpi-2" value="" style="endArrow=none;html=1;rounded=0;" edge="1" parent="1">
          <mxGeometry width="50" height="50" relative="1" as="geometry">
            <mxPoint x="160" y="410" as="sourcePoint" />
            <mxPoint x="280" y="410" as="targetPoint" />
          </mxGeometry>
        </mxCell>
        <mxCell id="AcQ2coQQ4TQe-I6zChpi-3" value="" style="endArrow=none;html=1;rounded=0;" edge="1" parent="1">
          <mxGeometry width="50" height="50" relative="1" as="geometry">
            <mxPoint x="160" y="420" as="sourcePoint" />
            <mxPoint x="280" y="420" as="targetPoint" />
          </mxGeometry>
        </mxCell>
        <mxCell id="AcQ2coQQ4TQe-I6zChpi-4" value="" style="endArrow=none;html=1;rounded=0;" edge="1" parent="1">
          <mxGeometry width="50" height="50" relative="1" as="geometry">
            <mxPoint x="160" y="430" as="sourcePoint" />
            <mxPoint x="280" y="430" as="targetPoint" />
          </mxGeometry>
        </mxCell>
        <mxCell id="AcQ2coQQ4TQe-I6zChpi-5" value="" style="endArrow=none;html=1;rounded=0;" edge="1" parent="1">
          <mxGeometry width="50" height="50" relative="1" as="geometry">
            <mxPoint x="160" y="440" as="sourcePoint" />
            <mxPoint x="280" y="440" as="targetPoint" />
          </mxGeometry>
        </mxCell>
        <mxCell id="AcQ2coQQ4TQe-I6zChpi-6" value="" style="endArrow=none;html=1;rounded=0;" edge="1" parent="1">
          <mxGeometry width="50" height="50" relative="1" as="geometry">
            <mxPoint x="160" y="450" as="sourcePoint" />
            <mxPoint x="280" y="450" as="targetPoint" />
          </mxGeometry>
        </mxCell>
        <mxCell id="AcQ2coQQ4TQe-I6zChpi-7" value="" style="endArrow=none;html=1;rounded=0;" edge="1" parent="1">
          <mxGeometry width="50" height="50" relative="1" as="geometry">
            <mxPoint x="160" y="460" as="sourcePoint" />
            <mxPoint x="280" y="460" as="targetPoint" />
          </mxGeometry>
        </mxCell>
        <mxCell id="AcQ2coQQ4TQe-I6zChpi-8" value="" style="endArrow=none;html=1;rounded=0;" edge="1" parent="1">
          <mxGeometry width="50" height="50" relative="1" as="geometry">
            <mxPoint x="160" y="470" as="sourcePoint" />
            <mxPoint x="280" y="470" as="targetPoint" />
          </mxGeometry>
        </mxCell>
        <mxCell id="AcQ2coQQ4TQe-I6zChpi-9" value="" style="endArrow=none;html=1;rounded=0;" edge="1" parent="1">
          <mxGeometry width="50" height="50" relative="1" as="geometry">
            <mxPoint x="160" y="520" as="sourcePoint" />
            <mxPoint x="280" y="520" as="targetPoint" />
          </mxGeometry>
        </mxCell>
        <mxCell id="AcQ2coQQ4TQe-I6zChpi-10" value="" style="endArrow=none;html=1;rounded=0;" edge="1" parent="1">
          <mxGeometry width="50" height="50" relative="1" as="geometry">
            <mxPoint x="160" y="530" as="sourcePoint" />
            <mxPoint x="280" y="530" as="targetPoint" />
          </mxGeometry>
        </mxCell>
        <mxCell id="AcQ2coQQ4TQe-I6zChpi-11" value="" style="endArrow=none;html=1;rounded=0;" edge="1" parent="1">
          <mxGeometry width="50" height="50" relative="1" as="geometry">
            <mxPoint x="160" y="540" as="sourcePoint" />
            <mxPoint x="280" y="540" as="targetPoint" />
          </mxGeometry>
        </mxCell>
        <mxCell id="AcQ2coQQ4TQe-I6zChpi-12" value="" style="endArrow=none;html=1;rounded=0;" edge="1" parent="1">
          <mxGeometry width="50" height="50" relative="1" as="geometry">
            <mxPoint x="160" y="550" as="sourcePoint" />
            <mxPoint x="280" y="550" as="targetPoint" />
          </mxGeometry>
        </mxCell>
        <mxCell id="AcQ2coQQ4TQe-I6zChpi-13" value="" style="endArrow=none;html=1;rounded=0;" edge="1" parent="1">
          <mxGeometry width="50" height="50" relative="1" as="geometry">
            <mxPoint x="160" y="560" as="sourcePoint" />
            <mxPoint x="280" y="560" as="targetPoint" />
          </mxGeometry>
        </mxCell>
        <mxCell id="AcQ2coQQ4TQe-I6zChpi-14" value="" style="endArrow=none;html=1;rounded=0;" edge="1" parent="1">
          <mxGeometry width="50" height="50" relative="1" as="geometry">
            <mxPoint x="160" y="570" as="sourcePoint" />
            <mxPoint x="280" y="570" as="targetPoint" />
          </mxGeometry>
        </mxCell>
        <mxCell id="AcQ2coQQ4TQe-I6zChpi-15" value="" style="endArrow=none;html=1;rounded=0;" edge="1" parent="1">
          <mxGeometry width="50" height="50" relative="1" as="geometry">
            <mxPoint x="160" y="580" as="sourcePoint" />
            <mxPoint x="280" y="580" as="targetPoint" />
          </mxGeometry>
        </mxCell>
        <mxCell id="AcQ2coQQ4TQe-I6zChpi-16" value="" style="endArrow=none;html=1;rounded=0;" edge="1" parent="1">
          <mxGeometry width="50" height="50" relative="1" as="geometry">
            <mxPoint x="160" y="590" as="sourcePoint" />
            <mxPoint x="280" y="590" as="targetPoint" />
          </mxGeometry>
        </mxCell>
        <mxCell id="AcQ2coQQ4TQe-I6zChpi-17" value="" style="endArrow=none;html=1;rounded=0;" edge="1" parent="1">
          <mxGeometry width="50" height="50" relative="1" as="geometry">
            <mxPoint x="160" y="640" as="sourcePoint" />
            <mxPoint x="280" y="640" as="targetPoint" />
          </mxGeometry>
        </mxCell>
        <mxCell id="AcQ2coQQ4TQe-I6zChpi-18" value="" style="endArrow=none;html=1;rounded=0;" edge="1" parent="1">
          <mxGeometry width="50" height="50" relative="1" as="geometry">
            <mxPoint x="160" y="650" as="sourcePoint" />
            <mxPoint x="280" y="650" as="targetPoint" />
          </mxGeometry>
        </mxCell>
        <mxCell id="AcQ2coQQ4TQe-I6zChpi-19" value="" style="endArrow=none;html=1;rounded=0;" edge="1" parent="1">
          <mxGeometry width="50" height="50" relative="1" as="geometry">
            <mxPoint x="160" y="660" as="sourcePoint" />
            <mxPoint x="280" y="660" as="targetPoint" />
          </mxGeometry>
        </mxCell>
        <mxCell id="AcQ2coQQ4TQe-I6zChpi-20" value="" style="endArrow=none;html=1;rounded=0;" edge="1" parent="1">
          <mxGeometry width="50" height="50" relative="1" as="geometry">
            <mxPoint x="160" y="670" as="sourcePoint" />
            <mxPoint x="280" y="670" as="targetPoint" />
          </mxGeometry>
        </mxCell>
        <mxCell id="AcQ2coQQ4TQe-I6zChpi-21" value="" style="endArrow=none;html=1;rounded=0;" edge="1" parent="1">
          <mxGeometry width="50" height="50" relative="1" as="geometry">
            <mxPoint x="160" y="680" as="sourcePoint" />
            <mxPoint x="280" y="680" as="targetPoint" />
          </mxGeometry>
        </mxCell>
        <mxCell id="AcQ2coQQ4TQe-I6zChpi-22" value="" style="endArrow=none;html=1;rounded=0;" edge="1" parent="1">
          <mxGeometry width="50" height="50" relative="1" as="geometry">
            <mxPoint x="160" y="690" as="sourcePoint" />
            <mxPoint x="280" y="690" as="targetPoint" />
          </mxGeometry>
        </mxCell>
        <mxCell id="AcQ2coQQ4TQe-I6zChpi-23" value="" style="endArrow=none;html=1;rounded=0;" edge="1" parent="1">
          <mxGeometry width="50" height="50" relative="1" as="geometry">
            <mxPoint x="160" y="700" as="sourcePoint" />
            <mxPoint x="280" y="700" as="targetPoint" />
          </mxGeometry>
        </mxCell>
        <mxCell id="AcQ2coQQ4TQe-I6zChpi-24" value="" style="endArrow=none;html=1;rounded=0;" edge="1" parent="1">
          <mxGeometry width="50" height="50" relative="1" as="geometry">
            <mxPoint x="160" y="710" as="sourcePoint" />
            <mxPoint x="280" y="710" as="targetPoint" />
          </mxGeometry>
        </mxCell>
        <mxCell id="AcQ2coQQ4TQe-I6zChpi-25" value="after_page_tables" style="text;html=1;align=center;verticalAlign=middle;resizable=0;points=[];autosize=1;strokeColor=none;fillColor=none;" vertex="1" parent="1">
          <mxGeometry x="100" y="370" width="120" height="30" as="geometry" />
        </mxCell>
        <mxCell id="AcQ2coQQ4TQe-I6zChpi-26" value="setup_paging" style="text;html=1;align=center;verticalAlign=middle;resizable=0;points=[];autosize=1;strokeColor=none;fillColor=none;" vertex="1" parent="1">
          <mxGeometry x="110" y="490" width="100" height="30" as="geometry" />
        </mxCell>
        <mxCell id="AcQ2coQQ4TQe-I6zChpi-27" value="_main" style="text;html=1;align=center;verticalAlign=middle;resizable=0;points=[];autosize=1;strokeColor=none;fillColor=none;" vertex="1" parent="1">
          <mxGeometry x="130" y="610" width="60" height="30" as="geometry" />
        </mxCell>
        <mxCell id="AcQ2coQQ4TQe-I6zChpi-28" value="" style="endArrow=classic;html=1;rounded=0;edgeStyle=orthogonalEdgeStyle;" edge="1" parent="1">
          <mxGeometry width="50" height="50" relative="1" as="geometry">
            <mxPoint x="290" y="460" as="sourcePoint" />
            <mxPoint x="290" y="520" as="targetPoint" />
            <Array as="points">
              <mxPoint x="320" y="460" />
              <mxPoint x="320" y="520" />
            </Array>
          </mxGeometry>
        </mxCell>
        <mxCell id="AcQ2coQQ4TQe-I6zChpi-29" value="jmp" style="text;html=1;align=center;verticalAlign=middle;resizable=0;points=[];autosize=1;strokeColor=none;fillColor=none;" vertex="1" parent="1">
          <mxGeometry x="285" y="438" width="40" height="30" as="geometry" />
        </mxCell>
        <mxCell id="AcQ2coQQ4TQe-I6zChpi-31" value="" style="endArrow=none;html=1;rounded=0;edgeStyle=orthogonalEdgeStyle;" edge="1" parent="1">
          <mxGeometry width="50" height="50" relative="1" as="geometry">
            <mxPoint x="290" y="420" as="sourcePoint" />
            <mxPoint x="310" y="430" as="targetPoint" />
            <Array as="points">
              <mxPoint x="300" y="420" />
              <mxPoint x="300" y="430" />
            </Array>
          </mxGeometry>
        </mxCell>
        <mxCell id="AcQ2coQQ4TQe-I6zChpi-32" value="" style="endArrow=none;html=1;rounded=0;edgeStyle=orthogonalEdgeStyle;" edge="1" parent="1">
          <mxGeometry width="50" height="50" relative="1" as="geometry">
            <mxPoint x="290" y="430" as="sourcePoint" />
            <mxPoint x="310" y="430" as="targetPoint" />
            <Array as="points">
              <mxPoint x="290" y="430" />
              <mxPoint x="320" y="430" />
            </Array>
          </mxGeometry>
        </mxCell>
        <mxCell id="AcQ2coQQ4TQe-I6zChpi-34" value="" style="endArrow=none;html=1;rounded=0;edgeStyle=orthogonalEdgeStyle;" edge="1" parent="1">
          <mxGeometry width="50" height="50" relative="1" as="geometry">
            <mxPoint x="290" y="440" as="sourcePoint" />
            <mxPoint x="310" y="430" as="targetPoint" />
            <Array as="points">
              <mxPoint x="300" y="440" />
              <mxPoint x="300" y="430" />
            </Array>
          </mxGeometry>
        </mxCell>
        <mxCell id="AcQ2coQQ4TQe-I6zChpi-35" value="push" style="text;html=1;align=center;verticalAlign=middle;resizable=0;points=[];autosize=1;strokeColor=none;fillColor=none;" vertex="1" parent="1">
          <mxGeometry x="300" y="414" width="50" height="30" as="geometry" />
        </mxCell>
        <mxCell id="AcQ2coQQ4TQe-I6zChpi-36" value="" style="rounded=0;whiteSpace=wrap;html=1;" vertex="1" parent="1">
          <mxGeometry x="480" y="420" width="40" height="20" as="geometry" />
        </mxCell>
        <mxCell id="AcQ2coQQ4TQe-I6zChpi-37" value="0" style="rounded=0;whiteSpace=wrap;html=1;" vertex="1" parent="1">
          <mxGeometry x="480" y="440" width="40" height="20" as="geometry" />
        </mxCell>
        <mxCell id="AcQ2coQQ4TQe-I6zChpi-38" value="0" style="rounded=0;whiteSpace=wrap;html=1;" vertex="1" parent="1">
          <mxGeometry x="480" y="460" width="40" height="20" as="geometry" />
        </mxCell>
        <mxCell id="AcQ2coQQ4TQe-I6zChpi-39" value="0" style="rounded=0;whiteSpace=wrap;html=1;" vertex="1" parent="1">
          <mxGeometry x="480" y="480" width="40" height="20" as="geometry" />
        </mxCell>
        <mxCell id="AcQ2coQQ4TQe-I6zChpi-40" value="L6" style="rounded=0;whiteSpace=wrap;html=1;" vertex="1" parent="1">
          <mxGeometry x="480" y="500" width="40" height="20" as="geometry" />
        </mxCell>
        <mxCell id="AcQ2coQQ4TQe-I6zChpi-59" style="edgeStyle=orthogonalEdgeStyle;rounded=0;orthogonalLoop=1;jettySize=auto;html=1;exitX=0;exitY=0.75;exitDx=0;exitDy=0;entryX=0.5;entryY=0;entryDx=0;entryDy=0;dashed=1;" edge="1" parent="1" source="AcQ2coQQ4TQe-I6zChpi-41" target="AcQ2coQQ4TQe-I6zChpi-58">
          <mxGeometry relative="1" as="geometry" />
        </mxCell>
        <mxCell id="AcQ2coQQ4TQe-I6zChpi-41" value="_main" style="rounded=0;whiteSpace=wrap;html=1;" vertex="1" parent="1">
          <mxGeometry x="480" y="520" width="40" height="20" as="geometry" />
        </mxCell>
        <mxCell id="AcQ2coQQ4TQe-I6zChpi-44" value="" style="endArrow=none;dashed=1;html=1;rounded=0;entryX=0;entryY=0.25;entryDx=0;entryDy=0;edgeStyle=orthogonalEdgeStyle;" edge="1" parent="1" target="AcQ2coQQ4TQe-I6zChpi-41">
          <mxGeometry width="50" height="50" relative="1" as="geometry">
            <mxPoint x="350" y="430" as="sourcePoint" />
            <mxPoint x="400" y="380" as="targetPoint" />
            <Array as="points">
              <mxPoint x="350" y="431" />
              <mxPoint x="440" y="431" />
              <mxPoint x="440" y="525" />
            </Array>
          </mxGeometry>
        </mxCell>
        <mxCell id="AcQ2coQQ4TQe-I6zChpi-45" value="" style="endArrow=none;html=1;rounded=0;" edge="1" parent="1">
          <mxGeometry width="50" height="50" relative="1" as="geometry">
            <mxPoint x="160" y="480" as="sourcePoint" />
            <mxPoint x="280" y="480" as="targetPoint" />
          </mxGeometry>
        </mxCell>
        <mxCell id="AcQ2coQQ4TQe-I6zChpi-46" value="" style="endArrow=none;html=1;rounded=0;" edge="1" parent="1">
          <mxGeometry width="50" height="50" relative="1" as="geometry">
            <mxPoint x="160" y="600" as="sourcePoint" />
            <mxPoint x="280" y="600" as="targetPoint" />
          </mxGeometry>
        </mxCell>
        <mxCell id="AcQ2coQQ4TQe-I6zChpi-47" value="" style="endArrow=none;html=1;rounded=0;" edge="1" parent="1">
          <mxGeometry width="50" height="50" relative="1" as="geometry">
            <mxPoint x="160" y="720" as="sourcePoint" />
            <mxPoint x="280" y="720" as="targetPoint" />
          </mxGeometry>
        </mxCell>
        <mxCell id="AcQ2coQQ4TQe-I6zChpi-48" value="" style="endArrow=classic;dashed=1;html=1;rounded=0;edgeStyle=orthogonalEdgeStyle;endFill=1;" edge="1" parent="1">
          <mxGeometry width="50" height="50" relative="1" as="geometry">
            <mxPoint x="290" y="600" as="sourcePoint" />
            <mxPoint x="290" y="470" as="targetPoint" />
            <Array as="points">
              <mxPoint x="350" y="600" />
              <mxPoint x="350" y="470" />
            </Array>
          </mxGeometry>
        </mxCell>
        <mxCell id="AcQ2coQQ4TQe-I6zChpi-49" value="通常情况" style="text;html=1;align=center;verticalAlign=middle;resizable=0;points=[];autosize=1;strokeColor=none;fillColor=none;" vertex="1" parent="1">
          <mxGeometry x="350" y="515" width="70" height="30" as="geometry" />
        </mxCell>
        <mxCell id="AcQ2coQQ4TQe-I6zChpi-52" value="" style="group" vertex="1" connectable="0" parent="1">
          <mxGeometry x="346" y="525" width="10" height="10" as="geometry" />
        </mxCell>
        <mxCell id="AcQ2coQQ4TQe-I6zChpi-50" value="" style="endArrow=none;html=1;rounded=0;fillColor=#f8cecc;strokeColor=#b85450;" edge="1" parent="AcQ2coQQ4TQe-I6zChpi-52">
          <mxGeometry width="50" height="50" relative="1" as="geometry">
            <mxPoint y="10" as="sourcePoint" />
            <mxPoint x="10" as="targetPoint" />
          </mxGeometry>
        </mxCell>
        <mxCell id="AcQ2coQQ4TQe-I6zChpi-51" value="" style="endArrow=none;html=1;rounded=0;fillColor=#f8cecc;strokeColor=#b85450;" edge="1" parent="AcQ2coQQ4TQe-I6zChpi-52">
          <mxGeometry width="50" height="50" relative="1" as="geometry">
            <mxPoint as="sourcePoint" />
            <mxPoint x="10" y="10" as="targetPoint" />
          </mxGeometry>
        </mxCell>
        <mxCell id="AcQ2coQQ4TQe-I6zChpi-54" value="ret" style="text;html=1;align=center;verticalAlign=middle;resizable=0;points=[];autosize=1;strokeColor=none;fillColor=none;" vertex="1" parent="1">
          <mxGeometry x="298" y="594" width="40" height="30" as="geometry" />
        </mxCell>
        <mxCell id="AcQ2coQQ4TQe-I6zChpi-55" value="" style="endArrow=classic;html=1;rounded=0;edgeStyle=orthogonalEdgeStyle;endFill=1;" edge="1" parent="1">
          <mxGeometry width="50" height="50" relative="1" as="geometry">
            <mxPoint x="290" y="600" as="sourcePoint" />
            <mxPoint x="290" y="640" as="targetPoint" />
            <Array as="points">
              <mxPoint x="340" y="600" />
              <mxPoint x="340" y="640" />
            </Array>
          </mxGeometry>
        </mxCell>
        <mxCell id="AcQ2coQQ4TQe-I6zChpi-56" value="" style="endArrow=classic;dashed=1;html=1;dashPattern=1 3;strokeWidth=2;rounded=0;edgeStyle=orthogonalEdgeStyle;endFill=1;" edge="1" parent="1">
          <mxGeometry width="50" height="50" relative="1" as="geometry">
            <mxPoint x="330" y="610" as="sourcePoint" />
            <mxPoint x="460" y="560" as="targetPoint" />
          </mxGeometry>
        </mxCell>
        <mxCell id="AcQ2coQQ4TQe-I6zChpi-57" value="pop" style="text;html=1;align=center;verticalAlign=middle;resizable=0;points=[];autosize=1;strokeColor=none;fillColor=none;" vertex="1" parent="1">
          <mxGeometry x="440" y="538" width="40" height="30" as="geometry" />
        </mxCell>
        <mxCell id="AcQ2coQQ4TQe-I6zChpi-61" style="edgeStyle=orthogonalEdgeStyle;rounded=0;orthogonalLoop=1;jettySize=auto;html=1;exitX=0;exitY=0.5;exitDx=0;exitDy=0;" edge="1" parent="1" source="AcQ2coQQ4TQe-I6zChpi-58">
          <mxGeometry relative="1" as="geometry">
            <mxPoint x="340" y="640" as="targetPoint" />
          </mxGeometry>
        </mxCell>
        <mxCell id="AcQ2coQQ4TQe-I6zChpi-58" value="EIP" style="rounded=0;whiteSpace=wrap;html=1;" vertex="1" parent="1">
          <mxGeometry x="400" y="630" width="40" height="20" as="geometry" />
        </mxCell>
        <mxCell id="AcQ2coQQ4TQe-I6zChpi-62" value="“返回”" style="text;html=1;align=center;verticalAlign=middle;resizable=0;points=[];autosize=1;strokeColor=none;fillColor=none;" vertex="1" parent="1">
          <mxGeometry x="288" y="610" width="60" height="30" as="geometry" />
        </mxCell>
        <mxCell id="AcQ2coQQ4TQe-I6zChpi-63" value="“调用”" style="text;html=1;align=center;verticalAlign=middle;resizable=0;points=[];autosize=1;strokeColor=none;fillColor=none;" vertex="1" parent="1">
          <mxGeometry x="270" y="490" width="60" height="30" as="geometry" />
        </mxCell>
        <mxCell id="AcQ2coQQ4TQe-I6zChpi-65" value="栈" style="text;html=1;align=center;verticalAlign=middle;resizable=0;points=[];autosize=1;strokeColor=none;fillColor=none;" vertex="1" parent="1">
          <mxGeometry x="480" y="538" width="40" height="30" as="geometry" />
        </mxCell>
        <mxCell id="AcQ2coQQ4TQe-I6zChpi-66" value="" style="rounded=0;whiteSpace=wrap;html=1;" vertex="1" parent="1">
          <mxGeometry x="157.5" y="822" width="640" height="40" as="geometry" />
        </mxCell>
        <mxCell id="AcQ2coQQ4TQe-I6zChpi-67" value="" style="rounded=0;whiteSpace=wrap;html=1;fillColor=#cce5ff;strokeColor=#36393d;" vertex="1" parent="1">
          <mxGeometry x="637.5" y="822" width="20" height="40" as="geometry" />
        </mxCell>
        <mxCell id="AcQ2coQQ4TQe-I6zChpi-68" value="" style="rounded=0;whiteSpace=wrap;html=1;fillColor=#cce5ff;strokeColor=#36393d;" vertex="1" parent="1">
          <mxGeometry x="517.5" y="822" width="20" height="40" as="geometry" />
        </mxCell>
        <mxCell id="AcQ2coQQ4TQe-I6zChpi-69" value="" style="rounded=0;whiteSpace=wrap;html=1;" vertex="1" parent="1">
          <mxGeometry x="157.5" y="942" width="640" height="40" as="geometry" />
        </mxCell>
        <mxCell id="AcQ2coQQ4TQe-I6zChpi-70" value="" style="rounded=0;whiteSpace=wrap;html=1;fillColor=#cce5ff;strokeColor=#36393d;" vertex="1" parent="1">
          <mxGeometry x="517.5" y="942" width="20" height="40" as="geometry" />
        </mxCell>
        <mxCell id="AcQ2coQQ4TQe-I6zChpi-71" value="" style="rounded=0;whiteSpace=wrap;html=1;fillColor=#cce5ff;strokeColor=#36393d;" vertex="1" parent="1">
          <mxGeometry x="637.5" y="942" width="20" height="40" as="geometry" />
        </mxCell>
        <mxCell id="AcQ2coQQ4TQe-I6zChpi-72" value="" style="endArrow=none;dashed=1;html=1;rounded=0;entryX=0;entryY=1;entryDx=0;entryDy=0;exitX=0;exitY=0;exitDx=0;exitDy=0;" edge="1" parent="1" source="AcQ2coQQ4TQe-I6zChpi-70" target="AcQ2coQQ4TQe-I6zChpi-68">
          <mxGeometry width="50" height="50" relative="1" as="geometry">
            <mxPoint x="477.5" y="932" as="sourcePoint" />
            <mxPoint x="527.5" y="882" as="targetPoint" />
          </mxGeometry>
        </mxCell>
        <mxCell id="AcQ2coQQ4TQe-I6zChpi-73" value="" style="endArrow=none;dashed=1;html=1;rounded=0;entryX=1;entryY=1;entryDx=0;entryDy=0;exitX=1;exitY=0;exitDx=0;exitDy=0;" edge="1" parent="1" source="AcQ2coQQ4TQe-I6zChpi-70" target="AcQ2coQQ4TQe-I6zChpi-68">
          <mxGeometry width="50" height="50" relative="1" as="geometry">
            <mxPoint x="527.5" y="952" as="sourcePoint" />
            <mxPoint x="527.5" y="872" as="targetPoint" />
          </mxGeometry>
        </mxCell>
        <mxCell id="AcQ2coQQ4TQe-I6zChpi-74" value="" style="endArrow=none;dashed=1;html=1;rounded=0;entryX=0.75;entryY=1;entryDx=0;entryDy=0;exitX=0.75;exitY=0;exitDx=0;exitDy=0;" edge="1" parent="1" source="AcQ2coQQ4TQe-I6zChpi-69" target="AcQ2coQQ4TQe-I6zChpi-66">
          <mxGeometry width="50" height="50" relative="1" as="geometry">
            <mxPoint x="547.5" y="952" as="sourcePoint" />
            <mxPoint x="547.5" y="872" as="targetPoint" />
          </mxGeometry>
        </mxCell>
        <mxCell id="AcQ2coQQ4TQe-I6zChpi-75" value="" style="endArrow=none;dashed=1;html=1;rounded=0;entryX=1;entryY=1;entryDx=0;entryDy=0;exitX=1;exitY=0;exitDx=0;exitDy=0;" edge="1" parent="1" source="AcQ2coQQ4TQe-I6zChpi-71" target="AcQ2coQQ4TQe-I6zChpi-67">
          <mxGeometry width="50" height="50" relative="1" as="geometry">
            <mxPoint x="647.5" y="952" as="sourcePoint" />
            <mxPoint x="647.5" y="872" as="targetPoint" />
          </mxGeometry>
        </mxCell>
        <mxCell id="AcQ2coQQ4TQe-I6zChpi-88" style="edgeStyle=orthogonalEdgeStyle;rounded=0;orthogonalLoop=1;jettySize=auto;html=1;exitX=0.5;exitY=0;exitDx=0;exitDy=0;entryX=0.5;entryY=0;entryDx=0;entryDy=0;" edge="1" parent="1" source="AcQ2coQQ4TQe-I6zChpi-76" target="AcQ2coQQ4TQe-I6zChpi-70">
          <mxGeometry relative="1" as="geometry">
            <Array as="points">
              <mxPoint x="207.5" y="932" />
              <mxPoint x="527.5" y="932" />
            </Array>
          </mxGeometry>
        </mxCell>
        <mxCell id="AcQ2coQQ4TQe-I6zChpi-76" value="" style="rounded=0;whiteSpace=wrap;html=1;fillColor=#ffff88;strokeColor=#36393d;" vertex="1" parent="1">
          <mxGeometry x="197.5" y="942" width="20" height="40" as="geometry" />
        </mxCell>
        <mxCell id="AcQ2coQQ4TQe-I6zChpi-89" style="edgeStyle=orthogonalEdgeStyle;rounded=0;orthogonalLoop=1;jettySize=auto;html=1;exitX=0.5;exitY=1;exitDx=0;exitDy=0;entryX=0.5;entryY=1;entryDx=0;entryDy=0;" edge="1" parent="1" source="AcQ2coQQ4TQe-I6zChpi-77" target="AcQ2coQQ4TQe-I6zChpi-71">
          <mxGeometry relative="1" as="geometry">
            <Array as="points">
              <mxPoint x="267.5" y="992" />
              <mxPoint x="647.5" y="992" />
            </Array>
          </mxGeometry>
        </mxCell>
        <mxCell id="AcQ2coQQ4TQe-I6zChpi-77" value="" style="rounded=0;whiteSpace=wrap;html=1;fillColor=#ffff88;strokeColor=#36393d;" vertex="1" parent="1">
          <mxGeometry x="257.5" y="942" width="20" height="40" as="geometry" />
        </mxCell>
        <mxCell id="AcQ2coQQ4TQe-I6zChpi-78" value="进程5第一个页表" style="text;html=1;align=center;verticalAlign=middle;resizable=0;points=[];autosize=1;strokeColor=none;fillColor=none;" vertex="1" parent="1">
          <mxGeometry x="472.5" y="780" width="110" height="30" as="geometry" />
        </mxCell>
        <mxCell id="AcQ2coQQ4TQe-I6zChpi-79" value="进程4第一个页表" style="text;html=1;align=center;verticalAlign=middle;resizable=0;points=[];autosize=1;strokeColor=none;fillColor=none;" vertex="1" parent="1">
          <mxGeometry x="592.5" y="780" width="110" height="30" as="geometry" />
        </mxCell>
        <mxCell id="AcQ2coQQ4TQe-I6zChpi-80" value="线性地址" style="rounded=0;whiteSpace=wrap;html=1;" vertex="1" parent="1">
          <mxGeometry x="157.5" y="822" width="360" height="40" as="geometry" />
        </mxCell>
        <mxCell id="AcQ2coQQ4TQe-I6zChpi-81" value="0" style="text;html=1;align=center;verticalAlign=middle;resizable=0;points=[];autosize=1;strokeColor=none;fillColor=none;" vertex="1" parent="1">
          <mxGeometry x="142.5" y="790" width="30" height="30" as="geometry" />
        </mxCell>
        <mxCell id="AcQ2coQQ4TQe-I6zChpi-82" value="16MB" style="text;html=1;align=center;verticalAlign=middle;resizable=0;points=[];autosize=1;strokeColor=none;fillColor=none;" vertex="1" parent="1">
          <mxGeometry x="767.5" y="790" width="50" height="30" as="geometry" />
        </mxCell>
        <mxCell id="AcQ2coQQ4TQe-I6zChpi-83" value="页目录表64项" style="text;html=1;align=center;verticalAlign=middle;resizable=0;points=[];autosize=1;strokeColor=none;fillColor=none;" vertex="1" parent="1">
          <mxGeometry x="157.5" y="902" width="100" height="30" as="geometry" />
        </mxCell>
        <mxCell id="AcQ2coQQ4TQe-I6zChpi-84" value="页目录表80项" style="text;html=1;align=center;verticalAlign=middle;resizable=0;points=[];autosize=1;strokeColor=none;fillColor=none;" vertex="1" parent="1">
          <mxGeometry x="222.5" y="992" width="100" height="30" as="geometry" />
        </mxCell>
        <mxCell id="AcQ2coQQ4TQe-I6zChpi-85" value="物理地址" style="rounded=0;whiteSpace=wrap;html=1;" vertex="1" parent="1">
          <mxGeometry x="277.5" y="942" width="240" height="40" as="geometry" />
        </mxCell>
        <mxCell id="AcQ2coQQ4TQe-I6zChpi-86" value="0" style="text;html=1;align=center;verticalAlign=middle;resizable=0;points=[];autosize=1;strokeColor=none;fillColor=none;" vertex="1" parent="1">
          <mxGeometry x="142.5" y="912" width="30" height="30" as="geometry" />
        </mxCell>
        <mxCell id="AcQ2coQQ4TQe-I6zChpi-87" value="16MB" style="text;html=1;align=center;verticalAlign=middle;resizable=0;points=[];autosize=1;strokeColor=none;fillColor=none;" vertex="1" parent="1">
          <mxGeometry x="767.5" y="912" width="50" height="30" as="geometry" />
        </mxCell>
      </root>
    </mxGraphModel>
  </diagram>
</mxfile>
